<svg width="36" height="36" viewBox="0 0 36 36" fill="none" xmlns="http://www.w3.org/2000/svg">
<path d="M9.54378 0L9.51924 9.0329L0 0.0916002L9.54378 0Z" fill="white"/>
<path d="M18.3247 0L18.3002 9.0329L9.47095 0.00325676L18.3247 0Z" fill="white"/>
<path d="M27.1883 0L27.1637 9.0329L18.3345 0.00325676L27.1883 0Z" fill="white"/>
<path d="M35.9084 0.0916002L35.9446 9.0329L27.1154 0.00325676L35.9084 0.0916002Z" fill="white"/>
<path d="M18.3247 8.99193L18.3002 18.0248L9.47095 8.99519L18.3247 8.99193Z" fill="white"/>
<path d="M27.1883 8.99193L27.1637 18.0248L18.3345 8.99519L27.1883 8.99193Z" fill="white"/>
<path d="M35.9692 8.99193L35.9446 18.0248L27.1154 8.99519L35.9692 8.99193Z" fill="white"/>
<path d="M27.1883 18.0348L27.1637 27.0677L18.3345 18.0381L27.1883 18.0348Z" fill="white"/>
<path d="M35.9692 18.0348L35.9446 27.0677L27.1154 18.0381L35.9692 18.0348Z" fill="white"/>
<path d="M35.9329 26.9671L35.9084 36L27.0792 26.9704L35.9329 26.9671Z" fill="white"/>
<path d="M1.94099 20.569C2.36801 21.5007 0.824923 21.1513 0 20.8602V26.3435C0.436724 27.9933 1.74689 29.3035 3.44527 29.3035C4.80396 29.3035 5.40243 27.7184 5.53183 26.9258C6.50233 21.1999 4.75544 17.2694 3.73641 13.5329C2.9212 10.5438 4.07609 12.2875 4.75544 13.5329C5.58036 15.5225 7.28843 20.4041 7.52135 24.0143C7.75427 27.6246 6.64791 29.6917 6.06561 30.274C8.68595 30.274 9.02562 29.9829 15.3824 29.7402C20.4678 29.5461 24.2948 31.4386 25.5726 32.4091C22.8876 32.0047 16.2849 31.3804 11.3548 32.118C6.42469 32.8555 1.73072 31.9724 0 31.4386V36H7.86103C10.3843 35.2624 11.371 34.1075 11.5489 33.6222C11.9371 34.7092 16.272 35.6603 18.3909 36H24.1169C24.078 35.1459 22.839 34.2207 22.2244 33.8649C24.0489 34.0201 27.3518 35.353 28.7752 36H33.4822C32.5893 33.2826 28.1929 31.0504 26.1064 30.274C26.611 30.1576 27.2224 29.4167 27.4651 29.0609C24.5091 26.1533 19.8593 26.6817 17.7203 26.9248L17.7116 26.9258C16.0035 27.1199 16.5146 26.3273 16.9837 25.9068C18.3424 24.7422 21.2054 24.7422 22.467 24.8878C20.9142 23.8202 19.2644 23.432 16.7411 23.8687C14.7224 24.2181 15.5118 23.2703 16.1588 22.7527L18.3909 20.569L12.8106 14.9887C13.037 16.218 13.1308 19.3462 11.6945 22.0248C10.2582 24.7034 10.3843 22.3645 10.6269 20.8602C11.5974 13.2418 6.06561 7.66143 6.06561 8.04963C6.06561 8.43783 5.82298 8.9716 5.33773 9.60243C4.94954 10.1071 4.62604 9.52155 4.51281 9.1657C3.65877 6.02129 1.14842 3.87649 0 3.19714V10.1847C0.517599 10.9126 1.5528 12.543 1.5528 13.2418C1.5528 13.9405 0.517599 13.5329 0 13.2418V16.0562C0.145575 17.3179 1.40722 19.4044 1.94099 20.569Z" fill="white"/>
</svg>
